<svg xmlns="http://www.w3.org/2000/svg" xmlns:xlink="http://www.w3.org/1999/xlink" height="600" preserveAspectRatio="xMidYMid meet" viewBox="0 0 512 512" width="800">
<g fill="#f7931e">
<svg class="icon" preserveAspectRatio="xMidYMid meet" version="1.0" viewBox="0 0 512 512">
<g>
<svg height="512" preserveAspectRatio="xMidYMid meet" width="512">
<svg version="1.1" viewBox="0 0 768 905">
<path d="M0 0 C5.6 5.3 9 9.4 9.8 17.3 C8.9 25.7 4.5 31.2 -1.6 36.8 C-11 43.8 -11 43.8 -16.6 44.8 C-17.6 43.4 -18.6 41.9 -19.6 40.5 C-20.5 39.3 -20.5 39.3 -21.4 38.1 C-23.4 35.1 -25.3 32.1 -27.2 29.1 C-27.8 28.1 -28.5 27.1 -29.1 26.1 C-29.6 25.3 -30.1 24.6 -30.6 23.8 C-27.9 63.4 -24.9 103 -21.8 142.5 C-21.1 152.7 -20.3 162.9 -19.5 173.1 C-18.1 191.2 -16.8 209.3 -15.4 227.5 C-15.3 229.1 -15.3 229.1 -15.1 230.7 C-14.3 241.7 -13.5 252.7 -12.6 263.7 C-12.2 269.2 -11.8 274.7 -11.4 280.2 C-11.3 281.3 -11.2 282.4 -11.1 283.5 C-9.7 301.6 -8.4 319.8 -7 337.9 C-6.1 349.1 -5.3 360.2 -4.4 371.4 C-3.9 379 -3.3 386.6 -2.7 394.2 C-2.4 398.6 -2 403 -1.7 407.4 C-1.4 411.4 -1.1 415.4 -0.8 419.4 C-0.7 420.8 -0.6 422.3 -0.4 423.8 C-0.3 425.7 -0.1 427.7 0 429.7 C0.1 430.8 0.2 431.9 0.3 433 C0.4 435.3 0.4 437.5 0.4 439.8 C-3.5 438.1 -6.7 435.4 -10.1 432.7 C-11.3 431.7 -12.6 430.7 -13.8 429.8 C-14.8 429 -14.8 429 -15.7 428.2 C-24.3 421.5 -33.1 415.3 -42.6 409.8 C-43.2 409.4 -43.8 409.1 -44.5 408.7 C-55.1 402.6 -65.8 398.1 -77.6 394.8 C-78.9 394.4 -78.9 394.4 -80.3 394 C-93.4 390.9 -107.4 391.3 -120.6 393.8 C-121.6 394 -122.6 394.2 -123.6 394.4 C-154.2 401 -180.8 423.5 -200.6 446.8 C-201 447.4 -201.5 447.9 -202 448.5 C-203.4 450.1 -204.7 451.7 -206.1 453.3 C-209.8 457.7 -213.5 462 -217.3 466.3 C-218.7 467.8 -218.7 467.8 -219.6 469.8 C-218.6 469.4 -217.6 469 -216.6 468.6 C-196.1 460.5 -176.7 457.9 -155.7 465.9 C-141.3 472.6 -131.2 484.3 -125.5 498.9 C-120.2 514.6 -120.5 528.7 -126.9 543.9 C-134.9 559.9 -148.6 568.5 -164.9 574.7 C-199.6 585.8 -234.5 573.1 -265.4 557.4 C-279.2 550.2 -292.3 542.1 -305.4 533.8 C-372.6 489.6 -372.6 489.6 -450.6 484.1 C-467.1 488.4 -481.3 498.2 -493.6 509.8 C-495 511.1 -496.5 512.3 -498 513.6 C-501.9 517 -505.2 520.8 -508.6 524.8 C-509.3 525.7 -509.3 525.7 -510.1 526.6 C-511.3 528 -512.4 529.4 -513.6 530.8 C-513.9 530.1 -514.2 529.5 -514.6 528.8 C-513.8 526.9 -513.8 526.9 -512.4 524.6 C-511.9 523.7 -511.4 522.9 -510.9 522 C-510.4 521.1 -509.9 520.1 -509.3 519.2 C-508.5 517.8 -508.5 517.8 -507.7 516.3 C-499.7 502.8 -490.9 490.6 -480.6 478.8 C-480 478.1 -479.3 477.3 -478.7 476.5 C-463.6 458.2 -439.1 445 -415.5 442.6 C-379.8 439.5 -348.5 452.4 -316.9 467.7 C-316.3 468 -315.6 468.3 -315 468.6 C-306.1 473 -297.3 477.5 -288.5 482.1 C-287.5 482.6 -286.4 483.2 -285.3 483.8 C-282.7 485.1 -280.2 486.5 -277.6 487.8 C-271.3 405.6 -265 323.3 -257.7 227 C-256.6 212.7 -255.5 198.4 -254.4 184.1 C-254.4 183 -254.3 181.9 -254.2 180.7 C-254.1 179.6 -254 178.5 -253.9 177.4 C-252.5 158.9 -251.1 140.5 -249.7 122 C-249.1 113.8 -248.5 105.6 -247.8 97.3 C-247.4 91.3 -246.9 85.3 -246.5 79.3 C-246.3 76.9 -246.1 74.5 -245.9 72.2 C-245.7 69.1 -245.5 66 -245.2 62.9 C-245.2 62 -245.1 61.1 -245 60.2 C-244.8 57 -244.6 53.9 -244.6 50.8 C-245.6 50.4 -246.6 50 -247.6 49.6 C-260.8 44.1 -274.9 37.7 -281.5 24.2 C-283.1 19 -283.3 15 -281.1 9.9 C-271.4 -7.5 -249.2 -14.9 -231.1 -20.2 C-167.4 -37.7 -54.1 -46.2 0 0 Z M-162.3 118.7 C-168.8 126.8 -170.7 135.3 -170.7 145.6 C-170.7 146.3 -170.7 147 -170.7 147.7 C-170.7 149.8 -170.7 151.9 -170.7 154 C-170.7 155.4 -170.7 156.7 -170.7 158 C-170.7 162.9 -170.6 167.8 -170.6 172.7 C-170.6 183.6 -170.6 194.5 -170.6 205.8 C-148.1 205.8 -125.7 205.8 -102.6 205.8 C-102.5 194.8 -102.4 183.8 -102.4 172.5 C-102.4 169 -102.3 165.6 -102.3 162 C-102.3 158.9 -102.3 158.9 -102.3 155.8 C-102.3 154.4 -102.3 153 -102.2 151.6 C-102.1 137.9 -103.5 126.4 -113.2 116.1 C-120.3 109.4 -129.2 106.4 -138.8 106.5 C-148 107.4 -156.1 111.9 -162.3 118.7 Z M-162.5 273 C-163 273.7 -163.6 274.5 -164.2 275.3 C-164.8 276.1 -165.3 276.8 -165.9 277.6 C-171 287.4 -171 298 -170.9 308.9 C-170.9 310.2 -170.9 311.5 -170.9 312.9 C-170.8 317.8 -170.8 322.7 -170.8 327.6 C-170.7 338.5 -170.6 349.5 -170.6 360.8 C-148.1 360.8 -125.7 360.8 -102.6 360.8 C-102.5 349.6 -102.4 338.5 -102.4 327 C-102.4 323.5 -102.3 320 -102.3 316.4 C-102.3 313.2 -102.3 313.2 -102.3 310 C-102.3 308.6 -102.3 307.2 -102.2 305.8 C-102.1 292.4 -103.3 281.1 -112.6 270.8 C-115.4 268.4 -118.3 266.5 -121.6 264.8 C-122.2 264.5 -122.8 264.1 -123.4 263.8 C-136.6 257.7 -153.1 262.4 -162.5 273 Z " fill="#4FCFFE" transform="translate(520.56640625,317.1953125)"/>
<path d="M0 0 C5.9 6.3 9.3 11 9.2 19.7 C8.7 25.5 4.9 29.9 1 34 C-1.1 35.7 -3.4 37.2 -5.8 38.6 C-6.4 39 -7 39.4 -7.6 39.8 C-19.8 47.3 -19.8 47.3 -24 46.7 C-26.5 45.8 -27.1 44.9 -28.6 42.6 C-29 41.9 -29.5 41.3 -29.9 40.6 C-30.3 39.9 -30.8 39.2 -31.2 38.4 C-31.7 37.7 -32.2 37 -32.6 36.3 C-33.8 34.5 -34.9 32.8 -36 31 C-35.9 31.9 -35.9 31.9 -35.9 32.9 C-34.7 47.9 -33.6 62.9 -32.5 77.9 C-31.9 85.1 -31.4 92.4 -30.8 99.6 C-30.4 105.9 -29.9 112.3 -29.4 118.6 C-29.2 121.9 -28.9 125.3 -28.7 128.6 C-28.4 132.4 -28.1 136.1 -27.8 139.9 C-27.7 141 -27.7 142.1 -27.6 143.2 C-27.1 149.2 -26.9 155 -27 161 C-32.2 160.4 -37.1 159.3 -42.1 158 C-59.5 153.7 -77.2 151.3 -95 149 C-95 148.3 -95 147.5 -95 146.8 C-95.1 139.7 -95.1 132.7 -95.2 125.7 C-95.3 122.1 -95.3 118.5 -95.3 114.9 C-95.4 111.4 -95.4 107.9 -95.5 104.4 C-95.5 102.5 -95.5 100.5 -95.5 98.5 C-95.7 86.4 -97.7 76.3 -106 67 C-112.5 61.1 -120.6 58.2 -129.4 57.9 C-137.5 58.5 -144.9 61.7 -151 67 C-151.7 67 -152.3 67 -153 67 C-153.3 67.5 -153.5 68.1 -153.8 68.6 C-154.7 70.4 -155.6 72.1 -156.5 73.8 C-157 74.8 -157.5 75.8 -158.1 76.9 C-158.6 77.9 -159.1 78.9 -159.7 79.9 C-161.8 84.9 -162.1 89.8 -162.2 95.2 C-162.2 96.4 -162.2 97.6 -162.3 98.8 C-162.3 100.1 -162.3 101.4 -162.3 102.7 C-162.3 104 -162.4 105.4 -162.4 106.7 C-162.4 110.2 -162.5 113.7 -162.5 117.2 C-162.6 120.8 -162.6 124.4 -162.7 128 C-162.8 135 -162.9 142 -163 149 C-164.6 149.2 -164.6 149.2 -166.3 149.5 C-195.9 153.6 -195.9 153.6 -225 160.5 C-227 161 -227 161 -231 161 C-230.3 141.3 -228.7 121.7 -227.2 102 C-226.9 98.3 -226.7 94.6 -226.4 90.9 C-226.1 87.4 -225.8 83.8 -225.6 80.2 C-225.4 78.5 -225.3 76.8 -225.2 75.1 C-224 59 -224 59 -223 51 C-223.9 50.8 -223.9 50.8 -224.8 50.6 C-236.7 47.8 -248.9 42.1 -258 34 C-258.6 33.4 -259.3 32.8 -260 32.2 C-264.8 27.7 -267 24.3 -267.3 17.6 C-267.1 10.8 -263.9 6 -259.4 1.1 C-206.9 -46.2 -53.2 -43.7 0 0 Z M-215 -18 C-211 -17 -211 -17 -211 -17 Z M-206 -17 C-202 -16 -202 -16 -202 -16 Z M-196 -16 C-196 -15.7 -196 -15.3 -196 -15 C-194.4 -15 -192.7 -15 -191 -15 C-191 -15.3 -191 -15.7 -191 -16 C-192.6 -16 -194.3 -16 -196 -16 Z M-61 -16 C-61 -15.7 -61 -15.3 -61 -15 C-59.4 -15 -57.7 -15 -56 -15 C-56 -15.3 -56 -15.7 -56 -16 C-57.6 -16 -59.3 -16 -61 -16 Z M-184 -15 C-184 -14.7 -184 -14.3 -184 -14 C-182 -14 -180 -14 -178 -14 C-178 -14.3 -178 -14.7 -178 -15 C-180 -15 -182 -15 -184 -15 Z M-74 -15 C-74 -14.7 -74 -14.3 -74 -14 C-71.7 -14 -69.4 -14 -67 -14 C-67 -14.3 -67 -14.7 -67 -15 C-69.3 -15 -71.6 -15 -74 -15 Z M-169 -14 C-169 -13.7 -169 -13.3 -169 -13 C-166 -13 -163.1 -13 -160 -13 C-160 -13.3 -160 -13.7 -160 -14 C-163 -14 -165.9 -14 -169 -14 Z M-92 -14 C-92 -13.7 -92 -13.3 -92 -13 C-89 -13 -86.1 -13 -83 -13 C-83 -13.3 -83 -13.7 -83 -14 C-86 -14 -88.9 -14 -92 -14 Z M-146 -13 C-146 -12.7 -146 -12.3 -146 -12 C-132.8 -12 -119.6 -12 -106 -12 C-106 -12.3 -106 -12.7 -106 -13 C-119.2 -13 -132.4 -13 -146 -13 Z " fill="#79FAFA" transform="translate(513,102)"/>
<path d="M0 0 C3.6 0.4 6.5 1.1 9.7 2.6 C13.8 4.5 18 6.3 22.1 8 C22.8 8.2 23.4 8.5 24.1 8.8 C25.5 9.4 27 10 28.4 10.6 C43.7 16.9 59.1 23.4 74.4 29.9 C93.4 38.1 112.5 46.1 131.6 54.2 C139.4 57.4 147.2 60.7 155 64 C154 67 154 67 151.2 68.4 C150 69 148.7 69.5 147.4 70 C146.4 70.4 146.4 70.4 145.3 70.8 C143.8 71.4 142.3 72.1 140.8 72.7 C137.6 74 134.3 75.3 131 76.7 C129.3 77.4 127.6 78.1 125.8 78.8 C117.5 82.2 109.3 85.7 101 89.2 C96.9 91 92.7 92.7 88.6 94.5 C87.7 94.9 86.9 95.2 86 95.6 C76.2 99.8 66.4 103.9 56.6 108 C54.6 108.9 52.7 109.7 50.7 110.6 C47.9 111.7 45.2 112.9 42.4 114.1 C41.6 114.4 40.8 114.7 40 115.1 C34.3 117.5 28.7 119.7 23 122 C21.3 122.7 19.7 123.3 18 124 C17.2 124.3 16.4 124.7 15.5 125 C13.8 125.7 12 126.4 10.3 127.1 C8.9 127.6 8.9 127.6 7.6 128.2 C6.8 128.5 6 128.8 5.1 129.2 C3.4 129.8 1.7 130.4 0 131 C0 129.4 0 127.7 0 126 C-0.3 126 -0.7 126 -1 126 C-1.3 122.4 -1.7 118.7 -2 115 C-2.3 115 -2.7 115 -3 115 C-4.3 107 -5.3 99.2 -5 91 C-5.3 91 -5.7 91 -6 91 C-6.1 84.2 -6.1 77.4 -6.2 70.5 C-6.2 68.2 -6.2 65.9 -6.2 63.6 C-6.4 47.7 -6.2 31.7 -3 16 C-2.7 15.7 -2.3 15.3 -2 15 C-1.8 13.3 -1.6 11.7 -1.5 10 C-1.1 5.1 -1.1 5.1 0 4 C0 2.7 0 1.4 0 0 Z M4 3 C5 6 5 6 5 6 Z M2 4 C3 7 3 7 3 7 Z M9 5 C10 8 10 8 10 8 Z M11 5 C12 7 12 7 12 7 Z M7 6 C8 9 8 9 8 9 Z M5 7 C6 10 6 10 6 10 Z M16 7 C17 10 17 10 17 10 Z M3 8 C4 11 4 11 4 11 Z M14 8 C15 11 15 11 15 11 Z M1 9 C2 12 2 12 2 12 Z M12 9 C13 12 13 12 13 12 Z M-1 10 C0 13 0 13 0 13 Z M10 10 C11 13 11 13 11 13 Z M21 10 C22 12 22 12 22 12 Z M8 11 C9 14 9 14 9 14 Z M19 11 C20 13 20 13 20 13 Z M6 12 C7 15 7 15 7 15 Z M17 12 C18 14 18 14 18 14 Z M4 13 C5 16 5 16 5 16 Z M13 13 C14 16 14 16 14 16 Z M15 13 C16 15 16 15 16 15 Z M0 14 C1 18 1 18 1 18 Z M2 14 C3 17 3 17 3 17 Z M11 14 C12 17 12 17 12 17 Z M24 14 C25 16 25 16 25 16 Z M9 15 C10 18 10 18 10 18 Z M22 15 C23 17 23 17 23 17 Z M7 16 C8 19 8 19 8 19 Z M20 16 C21 18 21 18 21 18 Z M5 17 C6 20 6 20 6 20 Z M18 17 C19 19 19 19 19 19 Z M3 18 C4 22 4 22 4 22 Z M14 18 C15 21 15 21 15 21 Z M16 18 C17 20 17 20 17 20 Z M1 19 C2 23 2 23 2 23 Z M12 19 C13 22 13 22 13 22 Z M-1 20 C-1 21.7 -1 23.3 -1 25 C-0.7 25 -0.3 25 0 25 C0 23.3 0 21.7 0 20 C-0.3 20 -0.7 20 -1 20 Z M10 20 C11 23 11 23 11 23 Z M8 21 C9 25 9 25 9 25 Z M19 21 C20 23 20 23 20 23 Z M-3 22 C-2 26 -2 26 -2 26 Z M6 22 C7 26 7 26 7 26 Z M17 22 C18 25 18 25 18 25 Z M15 23 C16 27 16 27 16 27 Z M4 24 C5 28 5 28 5 28 Z M13 24 C14 28 14 28 14 28 Z M2 25 C2 26.7 2 28.3 2 30 C2.3 30 2.7 30 3 30 C3 28.3 3 26.7 3 25 C2.7 25 2.3 25 2 25 Z M11 26 C12 30 12 30 12 30 Z M0 27 C1 31 1 31 1 31 Z M9 27 C10 31 10 31 10 31 Z M-2 28 C-2 29.7 -2 31.3 -2 33 C-1.7 33 -1.3 33 -1 33 C-1 31.3 -1 29.7 -1 28 C-1.3 28 -1.7 28 -2 28 Z M18 28 C19 31 19 31 19 31 Z M20 28 C21 30 21 30 21 30 Z M7 29 C8 33 8 33 8 33 Z M-4 30 C-3 34 -3 34 -3 34 Z M5 30 C6 34 6 34 6 34 Z M16 30 C17 33 17 33 17 33 Z M14 31 C15 34 15 34 15 34 Z M3 32 C4 36 4 36 4 36 Z M12 32 C13 36 13 36 13 36 Z M1 33 C1 35 1 37 1 39 C1.3 39 1.7 39 2 39 C2 37 2 35 2 33 C1.7 33 1.3 33 1 33 Z M10 34 C10 35.7 10 37.3 10 39 C10.3 39 10.7 39 11 39 C11 37.3 11 35.7 11 34 C10.7 34 10.3 34 10 34 Z M21 34 C22 36 22 36 22 36 Z M-1 35 C-1 37 -1 39 -1 41 C-0.7 41 -0.3 41 0 41 C0 39 0 37 0 35 C-0.3 35 -0.7 35 -1 35 Z M8 35 C8 37 8 39 8 41 C8.3 41 8.7 41 9 41 C9 39 9 37 9 35 C8.7 35 8.3 35 8 35 Z M17 36 C17 37.7 17 39.3 17 41 C17.3 41 17.7 41 18 41 C18 39.3 18 37.7 18 36 C17.7 36 17.3 36 17 36 Z M19 36 C20 38 20 38 20 38 Z M-3 37 C-3 39.3 -3 41.6 -3 44 C-2.7 44 -2.3 44 -2 44 C-2 41.7 -2 39.4 -2 37 C-2.3 37 -2.7 37 -3 37 Z M6 37 C6 39.3 6 41.6 6 44 C6.3 44 6.7 44 7 44 C7 41.7 7 39.4 7 37 C6.7 37 6.3 37 6 37 Z M15 38 C15 40 15 42 15 44 C15.3 44 15.7 44 16 44 C16 42 16 40 16 38 C15.7 38 15.3 38 15 38 Z M-5 40 C-5 42.3 -5 44.6 -5 47 C-4.7 47 -4.3 47 -4 47 C-4 44.7 -4 42.4 -4 40 C-4.3 40 -4.7 40 -5 40 Z M4 40 C4 42.3 4 44.6 4 47 C4.3 47 4.7 47 5 47 C5 44.7 5 42.4 5 40 C4.7 40 4.3 40 4 40 Z M13 41 C13 42.7 13 44.3 13 46 C13.3 46 13.7 46 14 46 C14 44.3 14 42.7 14 41 C13.7 41 13.3 41 13 41 Z M2 42 C2 44.3 2 46.6 2 49 C2.3 49 2.7 49 3 49 C3 46.7 3 44.4 3 42 C2.7 42 2.3 42 2 42 Z M11 43 C11 45 11 47 11 49 C11.3 49 11.7 49 12 49 C12 47 12 45 12 43 C11.7 43 11.3 43 11 43 Z M0 45 C0 48 0 50.9 0 54 C0.3 54 0.7 54 1 54 C1 51 1 48.1 1 45 C0.7 45 0.3 45 0 45 Z M9 45 C9 47.6 9 50.3 9 53 C9.3 53 9.7 53 10 53 C10 50.4 10 47.7 10 45 C9.7 45 9.3 45 9 45 Z M20 46 C21 49 21 49 21 49 Z M-2 47 C-2 51.3 -2 55.6 -2 60 C-1.7 60 -1.3 60 -1 60 C-1 55.7 -1 51.4 -1 47 C-1.3 47 -1.7 47 -2 47 Z M7 48 C7 51.6 7 55.3 7 59 C7.3 59 7.7 59 8 59 C8 55.4 8 51.7 8 48 C7.7 48 7.3 48 7 48 Z M18 48 C18 49.7 18 51.3 18 53 C18.3 53 18.7 53 19 53 C19 51.3 19 49.7 19 48 C18.7 48 18.3 48 18 48 Z M16 49 C16 52.3 16 55.6 16 59 C16.3 59 16.7 59 17 59 C17 55.7 17 52.4 17 49 C16.7 49 16.3 49 16 49 Z M-4 50 C-4 60.2 -4 70.5 -4 81 C-3.7 81 -3.3 81 -3 81 C-3 70.8 -3 60.5 -3 50 C-3.3 50 -3.7 50 -4 50 Z M5 51 C5 60.9 5 70.8 5 81 C5.3 81 5.7 81 6 81 C6 71.1 6 61.2 6 51 C5.7 51 5.3 51 5 51 Z M14 51 C14 60.6 14 70.1 14 80 C14.3 80 14.7 80 15 80 C15 70.4 15 60.9 15 51 C14.7 51 14.3 51 14 51 Z M3 56 C3 62.3 3 68.5 3 75 C3.3 75 3.7 75 4 75 C4 68.7 4 62.5 4 56 C3.7 56 3.3 56 3 56 Z M12 57 C12 62.9 12 68.9 12 75 C12.3 75 12.7 75 13 75 C13 69.1 13 63.1 13 57 C12.7 57 12.3 57 12 57 Z M-2 71 C-2 75.3 -2 79.6 -2 84 C-1.7 84 -1.3 84 -1 84 C-1 79.7 -1 75.4 -1 71 C-1.3 71 -1.7 71 -2 71 Z M7 72 C7 75.6 7 79.3 7 83 C7.3 83 7.7 83 8 83 C8 79.4 8 75.7 8 72 C7.7 72 7.3 72 7 72 Z M16 73 C16 76.3 16 79.6 16 83 C16.3 83 16.7 83 17 83 C17 79.7 17 76.4 17 73 C16.7 73 16.3 73 16 73 Z M0 77 C0 80 0 82.9 0 86 C0.3 86 0.7 86 1 86 C1 83 1 80.1 1 77 C0.7 77 0.3 77 0 77 Z M9 78 C9 80.6 9 83.3 9 86 C9.3 86 9.7 86 10 86 C10 83.4 10 80.7 10 78 C9.7 78 9.3 78 9 78 Z M18 79 C19 83 19 83 19 83 Z M2 82 C2 84.3 2 86.6 2 89 C2.3 89 2.7 89 3 89 C3 86.7 3 84.4 3 82 C2.7 82 2.3 82 2 82 Z M11 82 C11 84 11 86 11 88 C11.3 88 11.7 88 12 88 C12 86 12 84 12 82 C11.7 82 11.3 82 11 82 Z M20 82 C21 85 21 85 21 85 Z M4 85 C4 87 4 89 4 91 C4.3 91 4.7 91 5 91 C5 89 5 87 5 85 C4.7 85 4.3 85 4 85 Z M13 85 C13 87 13 89 13 91 C13.3 91 13.7 91 14 91 C14 89 14 87 14 85 C13.7 85 13.3 85 13 85 Z M-3 87 C-3 89.3 -3 91.6 -3 94 C-2.7 94 -2.3 94 -2 94 C-2 91.7 -2 89.4 -2 87 C-2.3 87 -2.7 87 -3 87 Z M6 87 C6 89.3 6 91.6 6 94 C6.3 94 6.7 94 7 94 C7 91.7 7 89.4 7 87 C6.7 87 6.3 87 6 87 Z M15 87 C15 89 15 91 15 93 C15.3 93 15.7 93 16 93 C16 91 16 89 16 87 C15.7 87 15.3 87 15 87 Z M-1 90 C-1 92.3 -1 94.6 -1 97 C-0.7 97 -0.3 97 0 97 C0 94.7 0 92.4 0 90 C-0.3 90 -0.7 90 -1 90 Z M8 90 C8 92 8 94 8 96 C8.3 96 8.7 96 9 96 C9 94 9 92 9 90 C8.7 90 8.3 90 8 90 Z M17 90 C17 91.7 17 93.3 17 95 C17.3 95 17.7 95 18 95 C18 93.3 18 91.7 18 90 C17.7 90 17.3 90 17 90 Z M1 92 C1 94 1 96 1 98 C1.3 98 1.7 98 2 98 C2 96 2 94 2 92 C1.7 92 1.3 92 1 92 Z M10 92 C10 93.7 10 95.3 10 97 C10.3 97 10.7 97 11 97 C11 95.3 11 93.7 11 92 C10.7 92 10.3 92 10 92 Z M19 93 C20 95 20 95 20 95 Z M3 95 C3 96.7 3 98.3 3 100 C3.3 100 3.7 100 4 100 C4 98.3 4 96.7 4 95 C3.7 95 3.3 95 3 95 Z M12 95 C13 99 13 99 13 99 Z M21 95 C22 97 22 97 22 97 Z M-4 97 C-3 101 -3 101 -3 101 Z M5 97 C6 101 6 101 6 101 Z M14 97 C15 100 15 100 15 100 Z M7 98 C8 102 8 102 8 102 Z M16 98 C17 101 17 101 17 101 Z M-2 99 C-1 103 -1 103 -1 103 Z M0 100 C1 104 1 104 1 104 Z M9 100 C10 104 10 104 10 104 Z M18 100 C19 103 19 103 19 103 Z M11 101 C12 105 12 105 12 105 Z M20 101 C21 103 21 103 21 103 Z M2 102 C3 106 3 106 3 106 Z M4 103 C5 107 5 107 5 107 Z M13 103 C14 107 14 107 14 107 Z M22 103 C23 105 23 105 23 105 Z M-3 105 C-2 109 -2 109 -2 109 Z M6 105 C7 109 7 109 7 109 Z M15 105 C16 108 16 108 16 108 Z M-1 106 C-1 107.7 -1 109.3 -1 111 C-0.7 111 -0.3 111 0 111 C0 109.3 0 107.7 0 106 C-0.3 106 -0.7 106 -1 106 Z M8 106 C9 110 9 110 9 110 Z M17 106 C18 109 18 109 18 109 Z M1 108 C2 112 2 112 2 112 Z M10 108 C11 111 11 111 11 111 Z M19 108 C20 110 20 110 20 110 Z M3 109 C4 113 4 113 4 113 Z M12 109 C13 112 13 112 13 112 Z M14 110 C15 113 15 113 15 113 Z M5 111 C6 114 6 114 6 114 Z M16 111 C17 113 17 113 17 113 Z M7 112 C8 115 8 115 8 115 Z M18 112 C19 114 19 114 19 114 Z M0 113 C1 117 1 117 1 117 Z M9 113 C10 116 10 116 10 116 Z M2 114 C3 118 3 118 3 118 Z M11 114 C12 117 12 117 12 117 Z M4 115 C5 119 5 119 5 119 Z M13 115 C14 118 14 118 14 118 Z M6 116 C7 120 7 120 7 120 Z M15 116 C16 119 16 119 16 119 Z M8 117 C9 121 9 121 9 121 Z M17 117 C18 119 18 119 18 119 Z M-1 118 C0 121 0 121 0 121 Z M10 118 C11 121 11 121 11 121 Z M19 118 C20 120 20 120 20 120 Z M1 119 C2 122 2 122 2 122 Z M12 119 C13 122 13 122 13 122 Z M21 119 C22 121 22 121 22 121 Z M3 120 C4 123 4 123 4 123 Z M14 120 C15 123 15 123 15 123 Z M5 121 C6 124 6 124 6 124 Z M7 122 C8 125 8 125 8 125 Z M9 123 C10 126 10 126 10 126 Z M11 124 C12 126 12 126 12 126 Z M2 125 C3 127 3 127 3 127 Z M4 125 C5 128 5 128 5 128 Z " fill="#FEDEA9" transform="translate(87,131)"/>
<path d="M0 0 C0.3 3.3 0.7 6.6 1 10 C1.3 10 1.7 10 2 10 C9.1 50.4 8.8 90.9 0 131 C-2.4 130.1 -4.8 129.1 -7.1 128.2 C-8.1 127.8 -8.1 127.8 -9.1 127.4 C-12.2 126.2 -15 125 -17.9 123.5 C-20.4 122.3 -22.5 121.5 -25.1 120.7 C-31.2 118.7 -37 116 -42.9 113.4 C-55.3 108 -67.9 102.7 -80.4 97.4 C-96.6 90.7 -112.8 83.9 -128.9 77 C-130.5 76.3 -130.5 76.3 -132.1 75.7 C-135 74.4 -137.9 73.2 -140.8 71.9 C-141.7 71.6 -142.6 71.2 -143.5 70.8 C-144.3 70.5 -145.1 70.1 -145.9 69.8 C-146.6 69.5 -147.3 69.2 -148 68.9 C-150 68 -152 67 -154 66 C-154 65.3 -154 64.7 -154 64 C-132.9 55 -111.8 46.1 -90.7 37.2 C-81.8 33.5 -72.9 29.7 -64.1 25.9 C-61 24.7 -58 23.4 -54.9 22.1 C-53 21.2 -51 20.4 -49 19.6 C-39.6 15.6 -30.1 11.6 -20.5 7.9 C-17.3 6.7 -14.1 5.4 -11 4 C-10.1 3.6 -9.2 3.3 -8.2 2.9 C-1.2 0 -1.2 0 0 0 Z M-5 2 C-4 5 -4 5 -4 5 Z M-3 3 C-2 6 -2 6 -2 6 Z M-1 4 C0 7 0 7 0 7 Z M-10 5 C-9 7 -9 7 -9 7 Z M-8 5 C-7 9 -7 9 -7 9 Z M-6 6 C-5 10 -5 10 -5 10 Z M-17 7 C-16 9 -16 9 -16 9 Z M-15 7 C-14 10 -14 10 -14 10 Z M-4 7 C-3 11 -3 11 -3 11 Z M-13 8 C-12 11 -12 11 -12 11 Z M-2 8 C-1 12 -1 12 -1 12 Z M-22 9 C-21 12 -21 12 -21 12 Z M-11 9 C-10 12 -10 12 -10 12 Z M-20 10 C-19 12 -19 12 -19 12 Z M-9 10 C-8 13 -8 13 -8 13 Z M-18 11 C-17 13 -17 13 -17 13 Z M-7 11 C-6 14 -6 14 -6 14 Z M-16 12 C-15 15 -15 15 -15 15 Z M-5 12 C-4 15 -4 15 -4 15 Z M-14 13 C-13 16 -13 16 -13 16 Z M-3 13 C-2 16 -2 16 -2 16 Z M-12 14 C-11 17 -11 17 -11 17 Z M-1 14 C0 17 0 17 0 17 Z M-21 15 C-20 17 -20 17 -20 17 Z M-10 15 C-9 18 -9 18 -9 18 Z M1 15 C2 18 2 18 2 18 Z M-19 16 C-18 18 -18 18 -18 18 Z M-8 16 C-7 19 -7 19 -7 19 Z M-6 16 C-5 20 -5 20 -5 20 Z M-17 17 C-16 19 -16 19 -16 19 Z M-15 17 C-14 20 -14 20 -14 20 Z M-4 17 C-3 21 -3 21 -3 21 Z M-13 18 C-12 21 -12 21 -12 21 Z M-2 18 C-1 22 -1 22 -1 22 Z M-11 19 C-10 23 -10 23 -10 23 Z M0 19 C0 20.7 0 22.3 0 24 C0.3 24 0.7 24 1 24 C1 22.3 1 20.7 1 19 C0.7 19 0.3 19 0 19 Z M-9 20 C-8 24 -8 24 -8 24 Z M-7 21 C-6 25 -6 25 -6 25 Z M2 21 C3 25 3 25 3 25 Z M-18 22 C-17 24 -17 24 -17 24 Z M-16 23 C-15 26 -15 26 -15 26 Z M-14 23 C-13 27 -13 27 -13 27 Z M-5 23 C-4 27 -4 27 -4 27 Z M-3 24 C-3 25.7 -3 27.3 -3 29 C-2.7 29 -2.3 29 -2 29 C-2 27.3 -2 25.7 -2 24 C-2.3 24 -2.7 24 -3 24 Z M-12 25 C-11 29 -11 29 -11 29 Z M-10 26 C-9 30 -9 30 -9 30 Z M-1 26 C0 30 0 30 0 30 Z M-21 27 C-20 29 -20 29 -20 29 Z M-19 27 C-18 30 -18 30 -18 30 Z M1 27 C1 28.7 1 30.3 1 32 C1.3 32 1.7 32 2 32 C2 30.3 2 28.7 2 27 C1.7 27 1.3 27 1 27 Z M-8 28 C-7 32 -7 32 -7 32 Z M-17 29 C-16 32 -16 32 -16 32 Z M-6 29 C-5 33 -5 33 -5 33 Z M3 29 C4 33 4 33 4 33 Z M-15 30 C-14 34 -14 34 -14 34 Z M-13 31 C-12 35 -12 35 -12 35 Z M-4 31 C-3 35 -3 35 -3 35 Z M-2 32 C-2 33.7 -2 35.3 -2 37 C-1.7 37 -1.3 37 -1 37 C-1 35.3 -1 33.7 -1 32 C-1.3 32 -1.7 32 -2 32 Z M-11 33 C-10 37 -10 37 -10 37 Z M-9 34 C-9 36 -9 38 -9 40 C-8.7 40 -8.3 40 -8 40 C-8 38 -8 36 -8 34 C-8.3 34 -8.7 34 -9 34 Z M0 34 C0 36 0 38 0 40 C0.3 40 0.7 40 1 40 C1 38 1 36 1 34 C0.7 34 0.3 34 0 34 Z M-20 35 C-19 37 -19 37 -19 37 Z M-18 35 C-17 39 -17 39 -17 39 Z M2 35 C2 37.6 2 40.3 2 43 C2.3 43 2.7 43 3 43 C3 40.4 3 37.7 3 35 C2.7 35 2.3 35 2 35 Z M-7 36 C-7 38 -7 40 -7 42 C-6.7 42 -6.3 42 -6 42 C-6 40 -6 38 -6 36 C-6.3 36 -6.7 36 -7 36 Z M-16 37 C-16 38.7 -16 40.3 -16 42 C-15.7 42 -15.3 42 -15 42 C-15 40.3 -15 38.7 -15 37 C-15.3 37 -15.7 37 -16 37 Z M-5 38 C-5 40.3 -5 42.6 -5 45 C-4.7 45 -4.3 45 -4 45 C-4 42.7 -4 40.4 -4 38 C-4.3 38 -4.7 38 -5 38 Z M4 38 C4 40.3 4 42.6 4 45 C4.3 45 4.7 45 5 45 C5 42.7 5 40.4 5 38 C4.7 38 4.3 38 4 38 Z M-14 39 C-14 41 -14 43 -14 45 C-13.7 45 -13.3 45 -13 45 C-13 43 -13 41 -13 39 C-13.3 39 -13.7 39 -14 39 Z M-12 41 C-12 43.3 -12 45.6 -12 48 C-11.7 48 -11.3 48 -11 48 C-11 45.7 -11 43.4 -11 41 C-11.3 41 -11.7 41 -12 41 Z M-3 41 C-3 43.3 -3 45.6 -3 48 C-2.7 48 -2.3 48 -2 48 C-2 45.7 -2 43.4 -2 41 C-2.3 41 -2.7 41 -3 41 Z M-1 43 C-1 45.3 -1 47.6 -1 50 C-0.7 50 -0.3 50 0 50 C0 47.7 0 45.4 0 43 C-0.3 43 -0.7 43 -1 43 Z M-21 44 C-20 47 -20 47 -20 47 Z M-10 44 C-10 46 -10 48 -10 50 C-9.7 50 -9.3 50 -9 50 C-9 48 -9 46 -9 44 C-9.3 44 -9.7 44 -10 44 Z M-8 46 C-8 49.3 -8 52.6 -8 56 C-7.7 56 -7.3 56 -7 56 C-7 52.7 -7 49.4 -7 46 C-7.3 46 -7.7 46 -8 46 Z M1 46 C1 49.3 1 52.6 1 56 C1.3 56 1.7 56 2 56 C2 52.7 2 49.4 2 46 C1.7 46 1.3 46 1 46 Z M-19 47 C-18 50 -18 50 -18 50 Z M-17 47 C-17 49.6 -17 52.3 -17 55 C-16.7 55 -16.3 55 -16 55 C-16 52.4 -16 49.7 -16 47 C-16.3 47 -16.7 47 -17 47 Z M-6 49 C-6 59.9 -6 70.8 -6 82 C-5.7 82 -5.3 82 -5 82 C-5 71.1 -5 60.2 -5 49 C-5.3 49 -5.7 49 -6 49 Z M3 49 C3 60.2 3 71.4 3 83 C3.3 83 3.7 83 4 83 C4 71.8 4 60.6 4 49 C3.7 49 3.3 49 3 49 Z M-15 50 C-15 53.6 -15 57.3 -15 61 C-14.7 61 -14.3 61 -14 61 C-14 57.4 -14 53.7 -14 50 C-14.3 50 -14.7 50 -15 50 Z M-13 53 C-13 61.2 -13 69.5 -13 78 C-12.7 78 -12.3 78 -12 78 C-12 69.8 -12 61.5 -12 53 C-12.3 53 -12.7 53 -13 53 Z M-4 53 C-4 61.2 -4 69.5 -4 78 C-3.7 78 -3.3 78 -3 78 C-3 69.8 -3 61.5 -3 53 C-3.3 53 -3.7 53 -4 53 Z M5 53 C5 61.2 5 69.5 5 78 C5.3 78 5.7 78 6 78 C6 69.8 6 61.5 6 53 C5.7 53 5.3 53 5 53 Z M-11 59 C-11 63.6 -11 68.2 -11 73 C-10.7 73 -10.3 73 -10 73 C-10 68.4 -10 63.8 -10 59 C-10.3 59 -10.7 59 -11 59 Z M-2 59 C-2 63.6 -2 68.2 -2 73 C-1.7 73 -1.3 73 -1 73 C-1 68.4 -1 63.8 -1 59 C-1.3 59 -1.7 59 -2 59 Z M-15 70 C-15 74 -15 77.9 -15 82 C-14.7 82 -14.3 82 -14 82 C-14 78 -14 74.1 -14 70 C-14.3 70 -14.7 70 -15 70 Z M-8 75 C-8 78.3 -8 81.6 -8 85 C-7.7 85 -7.3 85 -7 85 C-7 81.7 -7 78.4 -7 75 C-7.3 75 -7.7 75 -8 75 Z M1 75 C1 78.3 1 81.6 1 85 C1.3 85 1.7 85 2 85 C2 81.7 2 78.4 2 75 C1.7 75 1.3 75 1 75 Z M-17 76 C-17 78.6 -17 81.3 -17 84 C-16.7 84 -16.3 84 -16 84 C-16 81.4 -16 78.7 -16 76 C-16.3 76 -16.7 76 -17 76 Z M-19 81 C-18 84 -18 84 -18 84 Z M-10 81 C-10 83 -10 85 -10 87 C-9.7 87 -9.3 87 -9 87 C-9 85 -9 83 -9 81 C-9.3 81 -9.7 81 -10 81 Z M-1 81 C-1 83.3 -1 85.6 -1 88 C-0.7 88 -0.3 88 0 88 C0 85.7 0 83.4 0 81 C-0.3 81 -0.7 81 -1 81 Z M-12 83 C-12 85.3 -12 87.6 -12 90 C-11.7 90 -11.3 90 -11 90 C-11 87.7 -11 85.4 -11 83 C-11.3 83 -11.7 83 -12 83 Z M-3 83 C-3 85.3 -3 87.6 -3 90 C-2.7 90 -2.3 90 -2 90 C-2 87.7 -2 85.4 -2 83 C-2.3 83 -2.7 83 -3 83 Z M-21 84 C-20 87 -20 87 -20 87 Z M-14 86 C-14 88 -14 90 -14 92 C-13.7 92 -13.3 92 -13 92 C-13 90 -13 88 -13 86 C-13.3 86 -13.7 86 -14 86 Z M-5 86 C-5 88.3 -5 90.6 -5 93 C-4.7 93 -4.3 93 -4 93 C-4 90.7 -4 88.4 -4 86 C-4.3 86 -4.7 86 -5 86 Z M4 86 C4 88.3 4 90.6 4 93 C4.3 93 4.7 93 5 93 C5 90.7 5 88.4 5 86 C4.7 86 4.3 86 4 86 Z M-16 89 C-16 90.7 -16 92.3 -16 94 C-15.7 94 -15.3 94 -15 94 C-15 92.3 -15 90.7 -15 89 C-15.3 89 -15.7 89 -16 89 Z M-7 89 C-7 91 -7 93 -7 95 C-6.7 95 -6.3 95 -6 95 C-6 93 -6 91 -6 89 C-6.3 89 -6.7 89 -7 89 Z M2 89 C2 91.3 2 93.6 2 96 C2.3 96 2.7 96 3 96 C3 93.7 3 91.4 3 89 C2.7 89 2.3 89 2 89 Z M-9 91 C-9 93 -9 95 -9 97 C-8.7 97 -8.3 97 -8 97 C-8 95 -8 93 -8 91 C-8.3 91 -8.7 91 -9 91 Z M0 91 C0 93.3 0 95.6 0 98 C0.3 98 0.7 98 1 98 C1 95.7 1 93.4 1 91 C0.7 91 0.3 91 0 91 Z M-18 92 C-17 96 -17 96 -17 96 Z M-20 94 C-19 96 -19 96 -19 96 Z M-11 94 C-10 98 -10 98 -10 98 Z M-2 94 C-2 95.7 -2 97.3 -2 99 C-1.7 99 -1.3 99 -1 99 C-1 97.3 -1 95.7 -1 94 C-1.3 94 -1.7 94 -2 94 Z M-22 96 C-21 98 -21 98 -21 98 Z M-13 96 C-12 100 -12 100 -12 100 Z M-4 96 C-3 100 -3 100 -3 100 Z M-15 98 C-14 101 -14 101 -14 101 Z M-6 98 C-5 102 -5 102 -5 102 Z M3 98 C4 102 4 102 4 102 Z M-17 99 C-16 103 -16 103 -16 103 Z M-8 99 C-7 103 -7 103 -7 103 Z M1 99 C1 100.7 1 102.3 1 104 C1.3 104 1.7 104 2 104 C2 102.3 2 100.7 2 99 C1.7 99 1.3 99 1 99 Z M-19 101 C-18 104 -18 104 -18 104 Z M-10 101 C-9 105 -9 105 -9 105 Z M-1 101 C0 105 0 105 0 105 Z M-21 102 C-20 104 -20 104 -20 104 Z M-12 102 C-11 106 -11 106 -11 106 Z M-3 102 C-3 103.7 -3 105.3 -3 107 C-2.7 107 -2.3 107 -2 107 C-2 105.3 -2 103.7 -2 102 C-2.3 102 -2.7 102 -3 102 Z M-14 104 C-13 108 -13 108 -13 108 Z M-5 104 C-4 108 -4 108 -4 108 Z M-16 105 C-15 109 -15 109 -15 109 Z M-7 106 C-6 110 -6 110 -6 110 Z M2 106 C3 110 3 110 3 110 Z M-18 107 C-17 110 -17 110 -17 110 Z M-9 107 C-8 111 -8 111 -8 111 Z M0 107 C0 108.7 0 110.3 0 112 C0.3 112 0.7 112 1 112 C1 110.3 1 108.7 1 107 C0.7 107 0.3 107 0 107 Z M-11 109 C-10 112 -10 112 -10 112 Z M-2 109 C-1 113 -1 113 -1 113 Z M-13 110 C-12 113 -12 113 -12 113 Z M-4 110 C-3 114 -3 114 -3 114 Z M-15 111 C-14 114 -14 114 -14 114 Z M-6 111 C-5 115 -5 115 -5 115 Z M-17 112 C-16 114 -16 114 -16 114 Z M-19 113 C-18 115 -18 115 -18 115 Z M-8 113 C-7 116 -7 116 -7 116 Z M1 113 C2 116 2 116 2 116 Z M-21 114 C-20 116 -20 116 -20 116 Z M-12 114 C-11 117 -11 117 -11 117 Z M-10 114 C-9 116 -9 116 -9 116 Z M-1 114 C0 117 0 117 0 117 Z M-14 115 C-13 118 -13 118 -13 118 Z M-3 115 C-2 118 -2 118 -2 118 Z M-16 116 C-15 119 -15 119 -15 119 Z M-5 116 C-4 119 -4 119 -4 119 Z M-7 117 C-6 120 -6 120 -6 120 Z M-18 118 C-17 120 -17 120 -17 120 Z M-9 118 C-8 121 -8 121 -8 121 Z M-20 119 C-19 121 -19 121 -19 121 Z M-11 119 C-10 122 -10 122 -10 122 Z M0 119 C1 122 1 122 1 122 Z M-13 120 C-12 123 -12 123 -12 123 Z M-2 120 C-1 123 -1 123 -1 123 Z M-15 121 C-14 124 -14 124 -14 124 Z M-4 121 C-3 124 -3 124 -3 124 Z M-6 122 C-5 125 -5 125 -5 125 Z M-8 123 C-7 126 -7 126 -7 126 Z M-10 124 C-9 126 -9 126 -9 126 Z M-1 124 C0 127 0 127 0 127 Z M-3 125 C-2 128 -2 128 -2 128 Z " fill="#FEDFA9" transform="translate(680,131)"/>
<path d="M0 0 C5 3 9.2 6.8 13.5 10.7 C15.6 12.6 17.8 14.5 19.9 16.4 C39.9 33.9 63 60.6 65.2 88.3 C65.9 102 65 113.1 55.9 124 C45.6 134.8 32.4 139 17.7 139.4 C-22.1 139.6 -59.2 116.8 -87.2 89.9 C-88.3 88.8 -89.4 87.6 -90.5 86.5 C-92.2 84.8 -92.2 84.8 -95 82.6 C-98 80 -100.4 77.3 -102.9 74.4 C-105.9 71 -109.2 67.8 -112.5 64.6 C-115.9 61.2 -119 57.7 -122.2 54.1 C-125.3 50.6 -128.5 47.2 -131.7 43.8 C-138.5 36.6 -145.3 29.3 -152 22 C-147.7 22 -146.1 24.5 -143.2 27.3 C-136.5 33.7 -129.4 39.4 -122 45 C-121.4 45.5 -120.8 45.9 -120.2 46.4 C-110.9 53.5 -101.2 59.8 -91.1 65.8 C-89.2 66.9 -87.4 68 -85.6 69.1 C-61.1 83.8 -29.2 97.2 -0.1 92.5 C7.2 90.6 13.6 86.9 18.4 81.1 C24.4 69.3 22.9 55.9 19.2 43.7 C15.2 31.7 9.9 20.7 4 9.6 C3.5 8.6 2.9 7.7 2.4 6.7 C1.9 5.8 1.5 5 1 4.1 C0 2 0 2 0 0 Z " fill="#3FA5FF" transform="translate(699,762)"/>
<path d="M0 0 C2.4 1.7 2.4 1.7 5 4 C7.9 6.5 10.8 8.9 14 11 C14.3 12.7 14.7 14.3 15 16 C16 16.7 17 17.3 18 18 C19.1 20.3 20.1 22.6 21 25 C21.3 25 21.7 25 22 25 C22.5 28 22.5 28 23 31 C23.3 31 23.7 31 24 31 C24 34.6 24 38.3 24 42 C23.7 42 23.3 42 23 42 C22.9 42.9 22.8 43.8 22.7 44.8 C22 48.1 21.2 49.5 19 52 C16.7 55.4 16.5 57.9 16 62 C15.2 62.3 14.5 62.5 13.7 62.8 C11 64 10 65 8 67 C6.3 68 4.7 69 3 70 C2.5 70.5 1.9 71.1 1.4 71.6 C0 73 0 73 -3 74 C-5.8 73 -8.5 71.9 -11.3 70.8 C-12.1 70.4 -13 70 -13.8 69.7 C-16.6 68.5 -19.4 67.3 -22.2 66.1 C-24.1 65.3 -26 64.5 -28 63.7 C-32 62 -36 60.3 -40 58.6 C-45.8 56.1 -51.7 53.6 -57.6 51.1 C-64.5 48.2 -71.5 45.2 -78.4 42.3 C-79.1 42 -79.8 41.7 -80.5 41.4 C-83.7 40 -86.9 38.6 -90 37 C-90 36.3 -90 35.7 -90 35 C-68.1 25.7 -46.1 16.3 -24.1 7.1 C-23 6.6 -23 6.6 -21.8 6.1 C-20.4 5.5 -19 4.9 -17.6 4.3 C-13.8 2.8 -13.8 2.8 -10.1 1.1 C-4 -1.6 -4 -1.6 0 0 Z " fill="#FED796" transform="translate(616,160)"/>
<path d="M0 0 C5.9 1.9 11.6 4 17.3 6.4 C18.1 6.8 18.8 7.1 19.6 7.4 C21.3 8.2 23 8.9 24.6 9.6 C29 11.5 33.5 13.4 37.9 15.3 C39.3 15.8 39.3 15.8 40.6 16.4 C50.6 20.7 60.5 24.9 70.5 29.1 C72.2 29.8 73.8 30.5 75.5 31.2 C79.3 32.8 83.2 34.4 87 36 C86 39 86 39 83.2 40.4 C82 41 80.7 41.5 79.4 42 C78.7 42.3 78.1 42.5 77.3 42.8 C75.8 43.4 74.3 44.1 72.8 44.7 C69.6 46 66.4 47.3 63.1 48.6 C61.4 49.3 59.7 50 58 50.7 C48 54.8 38.1 59 28.2 63.2 C26.5 64 24.7 64.7 23 65.5 C20 66.7 16.9 68 13.9 69.3 C13.2 69.6 12.6 69.9 11.9 70.2 C10.6 70.7 9.3 71.3 8 71.9 C4.2 73.6 2.1 74.4 -2 73 C-5 71.8 -6.7 70.3 -9 68 C-10.7 67 -12.3 66 -14 65 C-16 63 -16 63 -16.1 60.4 C-16.1 59.2 -16.1 59.2 -16 58 C-16.7 58 -17.3 58 -18 58 C-18 57.3 -18 56.7 -18 56 C-18.7 56 -19.3 56 -20 56 C-20 55.3 -20 54.7 -20 54 C-20.7 54 -21.3 54 -22 54 C-22 53 -22 52 -22 51 C-22.7 51 -23.3 51 -24 51 C-24 49 -24 47 -24 45 C-24.7 45 -25.3 45 -26 45 C-26 40.1 -26 35.1 -26 30 C-25.3 30 -24.7 30 -24 30 C-24 28 -24 26 -24 24 C-23.3 24 -22.7 24 -22 24 C-22 23.3 -22 22.7 -22 22 C-21.3 22 -20.7 22 -20 22 C-20 21 -20 20 -20 19 C-19.3 19 -18.7 19 -18 19 C-18 18.3 -18 17.7 -18 17 C-17.3 17 -16.7 17 -16 17 C-16 15.3 -16 13.7 -16 12 C-15 11.7 -14 11.3 -13 11 C-12.2 10.2 -11.5 9.5 -10.7 8.7 C-8 6 -5.2 4.1 -2 2 C-1.3 1.3 -0.7 0.7 0 0 Z " fill="#FED796" transform="translate(155,159)"/>
<path d="M0 0 C2.7 0 5.2 0.2 7.9 0.4 C8.7 0.5 9.5 0.6 10.3 0.6 C12.1 0.8 13.8 0.9 15.5 1.1 C20 1.5 24.5 1.8 29 2.2 C29.9 2.3 30.8 2.3 31.7 2.4 C55.1 4.3 78.5 4.1 102 4 C105.7 12.6 107.1 20 107.1 29.4 C107 30.6 107 31.9 107 33.1 C107 34.1 107 35 107 36 C106.4 36 105.8 36 105.2 36 C62.2 35.5 22 37.5 -20 48 C-19.6 45.6 -19.1 43.3 -18.7 40.9 C-18.6 40.3 -18.5 39.6 -18.3 38.9 C-17.4 34.3 -16 30.3 -14 26 C-13.4 24.5 -12.9 23 -12.3 21.4 C-10.5 16.9 -8.3 12.7 -5.9 8.5 C-5.5 7.9 -5.2 7.3 -4.8 6.6 C-3.4 4.2 -2 2 0 0 Z M4 9 C4 9.3 4 9.7 4 10 C5.6 10 7.3 10 9 10 C9 9.7 9 9.3 9 9 C7.4 9 5.7 9 4 9 Z M13 10 C13 10.3 13 10.7 13 11 C15 11 17 11 19 11 C19 10.7 19 10.3 19 10 C17 10 15 10 13 10 Z M24 11 C24 11.3 24 11.7 24 12 C26.6 12 29.3 12 32 12 C32 11.7 32 11.3 32 11 C29.4 11 26.7 11 24 11 Z M39 12 C39 12.3 39 12.7 39 13 C42.3 13 45.6 13 49 13 C49 12.7 49 12.3 49 12 C45.7 12 42.4 12 39 12 Z M62 13 C62 13.3 62 13.7 62 14 C74.2 14 86.4 14 99 14 C99 13.7 99 13.3 99 13 C86.8 13 74.6 13 62 13 Z M-6 17 C-6 17.3 -6 17.7 -6 18 C-4.4 18 -2.7 18 -1 18 C-1 17.7 -1 17.3 -1 17 C-2.6 17 -4.3 17 -6 17 Z M3 18 C3 18.3 3 18.7 3 19 C4.6 19 6.3 19 8 19 C8 18.7 8 18.3 8 18 C6.4 18 4.7 18 3 18 Z M13 19 C13 19.3 13 19.7 13 20 C15 20 17 20 19 20 C19 19.7 19 19.3 19 19 C17 19 15 19 13 19 Z M24 20 C24 20.3 24 20.7 24 21 C26.3 21 28.6 21 31 21 C31 20.7 31 20.3 31 20 C28.7 20 26.4 20 24 20 Z M39 21 C39 21.3 39 21.7 39 22 C42.3 22 45.6 22 49 22 C49 21.7 49 21.3 49 21 C45.7 21 42.4 21 39 21 Z M61 22 C61 22.3 61 22.7 61 23 C73.5 23 86.1 23 99 23 C99 22.7 99 22.3 99 22 C86.5 22 73.9 22 61 22 Z M-6 26 C-6 26.3 -6 26.7 -6 27 C-4.4 27 -2.7 27 -1 27 C-1 26.7 -1 26.3 -1 26 C-2.6 26 -4.3 26 -6 26 Z M3 27 C7 28 7 28 7 28 Z M13 28 C13 28.3 13 28.7 13 29 C14.6 29 16.3 29 18 29 C18 28.7 18 28.3 18 28 C16.4 28 14.7 28 13 28 Z M24 29 C24 29.3 24 29.7 24 30 C26.3 30 28.6 30 31 30 C31 29.7 31 29.3 31 29 C28.7 29 26.4 29 24 29 Z M39 30 C39 30.3 39 30.7 39 31 C42.3 31 45.6 31 49 31 C49 30.7 49 30.3 49 30 C45.7 30 42.4 30 39 30 Z M61 31 C61 31.3 61 31.7 61 32 C73.5 32 86.1 32 99 32 C99 31.7 99 31.3 99 31 C86.5 31 73.9 31 61 31 Z M-6 35 C-2 36 -2 36 -2 36 Z M2 36 C2 36.3 2 36.7 2 37 C3.6 37 5.3 37 7 37 C7 36.7 7 36.3 7 36 C5.4 36 3.7 36 2 36 Z M12 37 C12 37.3 12 37.7 12 38 C14 38 16 38 18 38 C18 37.7 18 37.3 18 37 C16 37 14 37 12 37 Z M-15 43 C-11 44 -11 44 -11 44 Z " fill="#8CFCF9" transform="translate(307,4)"/>
<path d="M0 0 C0.5 1 0.5 1 1 2 C0 2.2 -0.9 2.5 -1.9 2.7 C-24.7 8.6 -44.4 18 -61 35 C-62.3 36.4 -62.3 36.4 -63.7 37.7 C-75.6 49.9 -84 63.9 -91.1 79.2 C-91.9 80.8 -92.7 82.4 -93.5 84 C-101.4 100.2 -106.9 117.8 -112 135 C-112.3 135 -112.7 135 -113 135 C-112.3 115.3 -110.7 95.7 -109.2 76.1 C-108.9 72.4 -108.7 68.7 -108.4 65 C-108.1 61.5 -107.8 57.9 -107.6 54.3 C-107.4 52.6 -107.3 50.9 -107.2 49.2 C-106.8 44.2 -106.4 39.1 -106 34 C-105.9 32.9 -105.8 31.9 -105.7 30.8 C-105.7 29.9 -105.6 29 -105.5 28 C-105.4 26.9 -105.4 26.9 -105.3 25.8 C-104.6 21.9 -101.9 20.3 -98.9 17.9 C-83.2 7.6 -64.7 1.9 -46 0 C-45 -0.1 -44.1 -0.2 -43.1 -0.3 C-29.5 -1.6 -13.4 -2.8 0 0 Z " fill="#52E3FE" transform="translate(395,128)"/>
<path d="M0 0 C1 1 2 2 3 3 C3.9 3.6 4.7 4.2 5.6 4.9 C8.4 7.3 8.5 8.5 9 12 C9.5 12.5 10 12.9 10.5 13.4 C12.7 15.7 12.7 18 13 21 C13.3 21 13.7 21 14 21 C14 25.3 14 29.6 14 34 C13.7 34 13.3 34 13 34 C12.9 34.9 12.8 35.9 12.7 36.8 C12 40.2 11.4 40.7 9 43 C8.9 43.8 8.8 44.6 8.7 45.4 C7.4 50.2 2.9 52.4 -1 55 C-3 54.6 -3 54.6 -5.2 53.6 C-6 53.2 -6.9 52.9 -7.8 52.5 C-8.7 52.1 -9.6 51.7 -10.5 51.3 C-11.5 50.9 -12.4 50.5 -13.4 50 C-16.5 48.7 -19.6 47.4 -22.6 46.1 C-25.6 44.8 -28.6 43.5 -31.6 42.2 C-33.6 41.3 -35.6 40.5 -37.5 39.6 C-42.1 37.7 -46.6 35.7 -51.2 33.9 C-52 33.6 -52.8 33.3 -53.6 33 C-55.1 32.4 -56.6 31.8 -58.1 31.2 C-59.7 30.6 -61.4 29.8 -63 29 C-63.3 28 -63.7 27 -64 26 C-24.4 9.1 -24.4 9.1 -10.6 3.4 C-9.7 3.1 -8.9 2.7 -8 2.3 C-2.2 0 -2.2 0 0 0 Z " fill="#FED285" transform="translate(590,169)"/>
<path d="M0 0 C11.4 4.2 22.6 8.7 33.8 13.6 C36.7 14.9 39.7 16.1 42.7 17.4 C43.4 17.7 44.2 18.1 44.9 18.4 C50.9 21 56.9 23.5 63 26 C62 29 62 29 59 30.6 C57.6 31.1 56.2 31.7 54.9 32.2 C54.1 32.5 53.4 32.8 52.6 33.1 C50.2 34.1 47.8 35.1 45.4 36.1 C43.8 36.7 42.1 37.4 40.5 38.1 C38 39.1 35.6 40.1 33.1 41.1 C28.2 43.1 23.3 45.1 18.4 47.2 C17.3 47.7 16.2 48.2 15.1 48.7 C13.1 49.5 11.1 50.4 9.1 51.3 C8.2 51.7 7.3 52 6.4 52.4 C5.2 52.9 5.2 52.9 4.1 53.4 C1.6 54.1 0.4 53.9 -2 53 C-3.6 51.6 -3.6 51.6 -5 50 C-6 49.3 -7 48.7 -8 48 C-8.2 45.4 -8.2 45.4 -8 43 C-8.7 43 -9.3 43 -10 43 C-10 42 -10 41 -10 40 C-10.7 40 -11.3 40 -12 40 C-12 38.7 -12 37.4 -12 36 C-12.7 36 -13.3 36 -14 36 C-14 30.4 -14 24.8 -14 19 C-13.3 19 -12.7 19 -12 19 C-12 17.7 -12 16.4 -12 15 C-11.3 15 -10.7 15 -10 15 C-10 14 -10 13 -10 12 C-9.3 12 -8.7 12 -8 12 C-8.1 11.2 -8.2 10.5 -8.3 9.7 C-8.2 8.4 -8.2 8.4 -8 7 C-5.7 5.4 -5.7 5.4 -3 4 C-2 2.7 -1 1.4 0 0 Z " fill="#FED185" transform="translate(179,169)"/>
<path d="M0 0 C8.1 2.5 15.8 5.8 23.6 9.2 C24.9 9.8 26.2 10.3 27.5 10.9 C30.7 12.3 33.8 13.6 37 15 C36 18 36 18 32.6 19.7 C31.1 20.3 29.6 21 28.1 21.6 C27.3 21.9 26.5 22.2 25.7 22.6 C24 23.3 22.3 24 20.7 24.6 C18.1 25.7 15.5 26.7 12.9 27.8 C11.3 28.5 9.7 29.2 8 29.8 C7.3 30.1 6.5 30.5 5.7 30.8 C0.2 33 0.2 33 -2 33 C-3.8 29.9 -4.2 27.8 -4.1 24.2 C-4.1 23.5 -4.1 22.7 -4.1 21.8 C-4 20.9 -4 20.9 -4 20 C-4.7 20 -5.3 20 -6 20 C-6 17.7 -6 15.4 -6 13 C-5.3 13 -4.7 13 -4 13 C-4 10 -4 7.1 -4 4 C-2.7 4.3 -1.4 4.7 0 5 C0 3.3 0 1.7 0 0 Z " fill="#FECB74" transform="translate(205,180)"/>
<path d="M0 0 C0.5 4 0.5 4 1 8 C1.3 8 1.7 8 2 8 C2 12.9 2 17.9 2 23 C1.7 23 1.3 23 1 23 C0.7 25.6 0.3 28.3 0 31 C-4.3 32.4 -7.2 30.6 -11.1 28.9 C-11.9 28.6 -12.7 28.3 -13.5 27.9 C-15.2 27.2 -16.9 26.5 -18.6 25.8 C-21.1 24.8 -23.7 23.7 -26.3 22.6 C-27.9 22 -29.5 21.3 -31.1 20.6 C-31.9 20.3 -32.7 20 -33.5 19.7 C-35.4 18.9 -37.2 17.9 -39 17 C-39.3 16 -39.7 15 -40 14 C-35.1 11.8 -30.2 9.7 -25.3 7.5 C-23.7 6.8 -22 6.1 -20.3 5.3 C-17.9 4.3 -15.5 3.2 -13.1 2.2 C-12.4 1.9 -11.7 1.5 -10.9 1.2 C-6.9 -0.5 -4.2 -1.5 0 0 Z " fill="#FECB75" transform="translate(566,181)"/>
<path d="M0 0 C0.3 0 0.7 0 1 0 C1 6.3 1 12.5 1 19 C0.7 19 0.3 19 0 19 C0 12.7 0 6.5 0 0 Z " fill="#FEE3B7" transform="translate(80,187)"/>
<path d="M0 0 C2 1 2 1 2 1 Z " fill="#8AFCF9" transform="translate(419,40)"/>
<path d="" fill="#3EA2FF" transform="translate(0,0)"/>
<path d="" fill="#3EA2FF" transform="translate(0,0)"/>
<path d="" fill="#89FDF9" transform="translate(0,0)"/>
<path d="" fill="#89FDF9" transform="translate(0,0)"/>
<path d="" fill="#8AFCF9" transform="translate(0,0)"/>
<path d="" fill="#8EFDFA" transform="translate(0,0)"/>
<path d="" fill="#8EFDFA" transform="translate(0,0)"/>
</svg>
</svg>
</g>
</svg>
</g>
</svg>
